<svg xmlns="http://www.w3.org/2000/svg" xmlns:xlink="http://www.w3.org/1999/xlink" width="448.438" height="277.507" viewBox="0 0 448.438 277.507"><defs><clipPath id="a"><rect width="103.99" height="151.11" fill="none"/></clipPath><clipPath id="b"><path d="M133.023,280.24,85.444,295.6V351.85H211.23V295.6l-41.677-12.714" transform="translate(-85.444 -280.24)" fill="none"/></clipPath><clipPath id="c"><rect width="202.272" height="136.885" fill="none"/></clipPath><clipPath id="d"><rect width="75.031" height="122.884" transform="translate(122.884 0) rotate(90)" fill="none"/></clipPath><clipPath id="e"><path d="M324.411,135.868A76.46,76.46,0,0,0,296,134.4c-14.673,2.288-24.91,14.773-24.91,14.773v11.943h83.978C348.549,141.668,324.411,135.868,324.411,135.868Z" transform="translate(-271.09 -133.663)" fill="none"/></clipPath><clipPath id="f"><rect width="51.877" height="75.031" fill="none"/></clipPath></defs><g transform="translate(-64.123 -56.859)"><g transform="translate(64.623 56.859)"><g transform="translate(290.126 28.476)"><path d="M622.837,222.936c-1.385-1.742-1.012-4.344.062-6.292s2.729-3.513,3.947-5.375c1.833-2.8,2.605-6.145,3.313-9.416s1.412-6.62,3.135-9.488,4.7-5.219,8.051-5.242c4.573-.031,8.255,4.433,8.663,8.987s-1.721,8.979-4.422,12.669c-5.026,6.866-9.882,13.558-22.749,14.157" transform="translate(-513.755 -122.5)" fill="#d0e8c8"/><path d="M598.194,282.509c.715-16.845,1.557-24.583,4.876-34.085,4.022-11.515,10.992-20.407,18.491-29.8,5.62-7.036,11.329-14.576,12.865-23.684" transform="translate(-506.98 -124.731)" fill="none" stroke="#619e7f" stroke-miterlimit="10" stroke-width="1"/><path d="M586.011,207.973c-8.553-2.625-9.51-13.721-10.2-20.61-1.1-11-2.436-22.168-1.584-33.232,1.152-14.964,8.351-30.387,23.993-35.515,4.574-1.5,9.473-2.6,14.262-1.864s9.433,3.668,10.731,7.974a4.407,4.407,0,0,1-.032,3.1,7.208,7.208,0,0,1-2.831,2.629c-10.823,7.13-18.135,18.608-19.609,30.784-1.046,8.636.712,17.4-.21,26.044s-5.571,17.932-14.524,20.69" transform="translate(-500.066 -102.356)" fill="#b3d1a7"/><path d="M606.979,186.341c5.1-.407,9.157-4.663,11.256-9.327,4.85-10.782,3.933-23.177,10.789-33.188,3.563-5.2,8.411-9.4,12.251-14.4,5.428-7.071,8.093-17.113,3.929-25.38-6.282-12.471-19.584-6.815-27.658.452-11.181,10.064-20.4,24.734-22.963,39.044-1.681,9.4-4.282,32.945,12.4,42.8" transform="translate(-505.596 -96.703)" fill="#d0e8c8"/><path d="M579.553,243.844c-15.019-2.293-12.578-15.89-15.447-21.161-5.04-9.259-3.817-20.69-8.275-30.224-3.133-6.7-8-11.283-15.165-11.979,3.476-1.8,29.62.122,34.606,4.3,5.6,4.693,8.073,9.678,9.888,16.624,2.068,7.921,9.533,37.316-5.606,42.436" transform="translate(-490.567 -120.412)" fill="#5e8e76"/><path d="M549.944,180.5c20.3,1.964,28.732,20.509,31.144,41.175,2.464,21.115.1,46.024-.134,67.3" transform="translate(-493.214 -120.61)" fill="none" stroke="#619e7f" stroke-miterlimit="10" stroke-width="1"/><path d="M640.909,112.5c-7.047,0-15.856,11.6-18.987,19.768-6.38,16.655-8.741,34.59-10.245,52.248q-2.847,33.433-3.07,67.02" transform="translate(-509.951 -101.21)" fill="none" stroke="#619e7f" stroke-miterlimit="10" stroke-width="1"/><path d="M648.015,253.2c4.941-.3,13.343.786,17.961,2.611a22.052,22.052,0,0,1,7.253,9.272c1.824,4.72.927,10.648-2.786,14.006-2.869,2.594-6.935,3.378-10.752,3.141a11.614,11.614,0,0,1-5.362-1.442c-4.087-2.487-5.035-7.995-7.341-12.257a18.463,18.463,0,0,0-16.018-9.582" transform="translate(-516.331 -141.339)" fill="#5e8e76"/><path d="M667.6,271.8c-.2-7.4-1.273-13.184-7.631-17.868a20.136,20.136,0,0,0-13.69-3.826" transform="translate(-520.699 -140.446)" fill="none" stroke="#3f6d54" stroke-miterlimit="10" stroke-width="1"/><path d="M661.771,253.958c-9.044-1.679-18.654,2.012-25.08,8.752-3.023,3.171-5.925,7.258-10.234,7.646-4.45.4-10.067.813-10.224-8.516-.119-7.08,4.16-8.9,7.918-11.378s8.3-3.369,12.758-3.706c5.217-.395,17.893-.019,24.861,7.2" transform="translate(-512.126 -139.484)" fill="#b3d1a7"/><path d="M651.934,248.332c-15.885,0-27.619,11.76-30.186,19.941S618.734,285.3,618.665,294" transform="translate(-512.82 -139.963)" fill="none" stroke="#5e8e76" stroke-miterlimit="10" stroke-width="1"/><path d="M531.545,185.883c-12.035,2.677-19.255-10.7-27.186-18.805-8.909-9.1-19.639-9.473-29.4-16.165-2.691-1.845-5.245-5.439-4.114-8.869,1-3.035,4.2-3.937,6.938-4.3,8.819-1.166,17.828-1.121,26.468,1.271,11.984,3.32,25.477,6.9,31.41,20.1,2.542,5.66,4.694,23.7-4.113,26.762" transform="translate(-470.567 -108.2)" fill="#b3d1a7"/><path d="M478.811,143.352c30.094,2.136,49.056,25.913,57.279,53.037,6.507,21.462,9.385,44.6,10.8,66.919" transform="translate(-472.919 -110.012)" fill="none" stroke="#619e7f" stroke-miterlimit="10" stroke-width="1"/><path d="M614.8,305.128H548.948s-2.006,77.238,16.885,99.57h32.082C616.807,382.366,614.8,305.128,614.8,305.128Z" transform="translate(-492.912 -156.168)" fill="#fff" stroke="#ff796d" stroke-miterlimit="10" stroke-width="1"/></g><g transform="translate(0 9.691)"><path d="M438.142,154.158h14.422a9.524,9.524,0,0,1,9.524,9.524v25.579" transform="translate(-171.19 -94.31)" fill="none" stroke="#ff796d" stroke-miterlimit="10" stroke-width="1" stroke-dasharray="5 3.5"/><path d="M228.831,284.17h22.506a5.622,5.622,0,0,1,5.622,5.622v23.417a5.622,5.622,0,0,0,5.622,5.623H498.075a6.64,6.64,0,0,1,6.64,6.64v16.37a6.641,6.641,0,0,1-6.64,6.641H435.26" transform="translate(-111.472 -131.403)" fill="none" stroke="#ff796d" stroke-miterlimit="10" stroke-width="1" stroke-dasharray="5 3.5"/><path d="M169.608,142.949V115.308a13.605,13.605,0,0,1,13.6-13.6H463.992a5.6,5.6,0,0,1,5.6,5.6v23.268a5.6,5.6,0,0,1-5.6,5.6H431.057" transform="translate(-94.576 -79.345)" fill="none" stroke="#ff796d" stroke-miterlimit="10" stroke-width="1" stroke-dasharray="5 3.5"/><path d="M272.334,409.056a2.073,2.073,0,1,1-2.073-2.073A2.073,2.073,0,0,1,272.334,409.056Z" transform="translate(-122.701 -166.443)" fill="none" stroke="#ff796d" stroke-miterlimit="10" stroke-width="1"/><path d="M145.316,117.989a2.073,2.073,0,1,1-2.073-2.073A2.073,2.073,0,0,1,145.316,117.989Z" transform="translate(-86.462 -83.4)" fill="none" stroke="#ff796d" stroke-miterlimit="10" stroke-width="1"/><path d="M471.813,72.492a2.073,2.073,0,1,1-2.073-2.073A2.073,2.073,0,0,1,471.813,72.492Z" transform="translate(-179.614 -70.419)" fill="none" stroke="#ff796d" stroke-miterlimit="10" stroke-width="1"/><path d="M619.911,316.695a2.073,2.073,0,1,1-2.073-2.073A2.073,2.073,0,0,1,619.911,316.695Z" transform="translate(-221.867 -140.092)" fill="none" stroke="#ff796d" stroke-miterlimit="10" stroke-width="1"/><path d="M68.769,281.091a2.073,2.073,0,1,1-2.073-2.073A2.072,2.072,0,0,1,68.769,281.091Z" transform="translate(-64.623 -129.934)" fill="none" stroke="#ff796d" stroke-miterlimit="10" stroke-width="1"/><path d="M672.9,227.917a2.073,2.073,0,1,1-2.073-2.073A2.073,2.073,0,0,1,672.9,227.917Z" transform="translate(-236.987 -114.763)" fill="none" stroke="#ff796d" stroke-miterlimit="10" stroke-width="1"/><circle cx="5.616" cy="5.616" r="5.616" transform="translate(63.35 18.321) rotate(-80.783)" fill="#fff3f5"/><path d="M592.179,80.982a4.722,4.722,0,1,1-4.722-4.722A4.722,4.722,0,0,1,592.179,80.982Z" transform="translate(-212.443 -72.085)" fill="#fff3f5"/><circle cx="4.722" cy="4.722" r="4.722" transform="translate(427.051 174.73)" fill="#fff3f5"/><circle cx="4.722" cy="4.722" r="4.722" transform="translate(173.472 246.031)" fill="#fff3f5"/></g><g transform="translate(20.682 54.418)"><g fill="#ffecee" stroke="#ff796d" stroke-miterlimit="10" stroke-width="1"><rect width="115.4" height="165.907" rx="15.042" stroke="none"/><rect x="0.5" y="0.5" width="114.4" height="164.907" rx="14.542" fill="none"/></g><rect width="103.99" height="151.11" transform="translate(5.705 7.399)" fill="#d0ede8"/><g transform="translate(5.705 7.399)"><g clip-path="url(#a)"><g transform="translate(5.802 6.266)"><g transform="translate(0 28.883)"><path d="M110.377,199.763a.715.715,0,0,1-.505-1.22l5.8-5.8a.715.715,0,0,1,1.011,1.011l-5.8,5.8A.71.71,0,0,1,110.377,199.763Z" transform="translate(-109.662 -192.533)" fill="#ff9e94"/></g><g transform="translate(19.199 19.937)"><path d="M144.992,184.132a.723.723,0,0,1-.234-.039l-7.752-2.688a.714.714,0,1,1,.468-1.35l7.752,2.687a.715.715,0,0,1-.234,1.39Z" transform="translate(-136.525 -180.015)" fill="#ff9e94"/></g><g transform="translate(20.21)"><path d="M138.655,155.729a.714.714,0,0,1-.305-1.361l4.62-2.181a.715.715,0,0,1,.61,1.293l-4.62,2.18A.716.716,0,0,1,138.655,155.729Z" transform="translate(-137.939 -152.119)" fill="#ff9e94"/></g><g transform="translate(95.162 36.62)"><path d="M243.528,206.968a.714.714,0,0,1-.305-1.361l4.62-2.18a.715.715,0,1,1,.61,1.292l-4.621,2.181A.72.72,0,0,1,243.528,206.968Z" transform="translate(-242.812 -203.359)" fill="#ff9e94"/></g><g transform="translate(12.91 67.694)"><path d="M133.252,251.8a.71.71,0,0,1-.422-.138l-4.812-3.532a.715.715,0,1,1,.845-1.153l4.813,3.532a.715.715,0,0,1-.424,1.291Z" transform="translate(-127.725 -246.837)" fill="#ff9e94"/></g><g transform="translate(80.149 49.022)"><path d="M229.6,226.28a.708.708,0,0,1-.36-.1l-7.083-4.14a.714.714,0,0,1,.721-1.234l7.083,4.14a.715.715,0,0,1-.361,1.331Z" transform="translate(-221.806 -220.71)" fill="#ff9e94"/></g><g transform="translate(72.119 94.42)"><path d="M211.286,290.581a.715.715,0,0,1-.43-1.286l6.566-4.92a.714.714,0,1,1,.857,1.143l-6.565,4.921A.712.712,0,0,1,211.286,290.581Z" transform="translate(-210.571 -284.232)" fill="#ff9e94"/></g><g transform="translate(0.787 86.152)"><path d="M111.478,277.84A.714.714,0,0,1,111,276.59l4.227-3.746a.714.714,0,1,1,.948,1.069l-4.227,3.746A.711.711,0,0,1,111.478,277.84Z" transform="translate(-110.763 -272.663)" fill="#ff9e94"/></g><g transform="translate(3.242 50.563)"><path d="M114.2,222.867l.735,2.488,1.885-1.842Z" transform="translate(-114.198 -222.867)" fill="#ff9e94"/></g><g transform="translate(86.411 16.378)"><path d="M231.688,175.035l-1.12,2.34,2.633-.105Z" transform="translate(-230.568 -175.035)" fill="#ff9e94"/></g><g transform="translate(56.894 4.855)"><path d="M189.268,159.577l1.821,1.848.8-2.513Z" transform="translate(-189.268 -158.912)" fill="#ff9e94"/></g><g transform="translate(4.441 10.043)"><path d="M117.546,166.172l-1.67,1.985,2.576.557Z" transform="translate(-115.876 -166.172)" fill="#ff9e94"/></g><g transform="translate(43.87 17.564)"><path d="M171.045,176.694,172.229,179l1.511-2.16Z" transform="translate(-171.045 -176.694)" fill="#ff9e94"/></g><g transform="translate(1.128 66.595)"><path d="M113.727,245.3l-2.488.737,1.843,1.884Z" transform="translate(-111.24 -245.3)" fill="#fff"/></g><g transform="translate(89.075 71.701)"><path d="M236.127,252.443l-1.831,1.839,2.52.771Z" transform="translate(-234.296 -252.443)" fill="#fff"/></g><g transform="translate(74.802 3.616)"><path d="M214.325,157.178l.768,2.478,1.861-1.866Z" transform="translate(-214.325 -157.178)" fill="#fff"/></g><g transform="translate(18.494 40.296)"><path d="M137.269,209.367a.865.865,0,1,1-.866-.865A.865.865,0,0,1,137.269,209.367Z" transform="translate(-135.539 -208.502)" fill="#fff"/></g><g transform="translate(32.87 6.779)"><path d="M157.384,162.469a.865.865,0,1,1-.865-.865A.865.865,0,0,1,157.384,162.469Z" transform="translate(-155.654 -161.604)" fill="#fff"/></g><g transform="translate(67.544 21.13)"><path d="M205.9,182.55a.865.865,0,1,1-.865-.865A.865.865,0,0,1,205.9,182.55Z" transform="translate(-204.169 -181.685)" fill="#fff"/></g><g transform="translate(89.471 93.632)"><path d="M236.579,283.994a.865.865,0,1,1-.865-.865A.865.865,0,0,1,236.579,283.994Z" transform="translate(-234.849 -283.129)" fill="#fff"/></g></g><path d="M133.023,280.24,85.444,295.6V351.85H211.23V295.6l-41.677-12.714" transform="translate(-96.95 -182.407)" fill="#7798b7"/><g transform="translate(-11.506 97.833)"><g clip-path="url(#b)"><path d="M92.444,321.741q66.187,1.608,132.392-.638" transform="translate(-87.441 -291.898)" fill="none" stroke="#6387a5" stroke-miterlimit="10" stroke-width="1.3"/><path d="M220.306,316.359q-65.3-.919-130.614-.26" transform="translate(-86.656 -290.392)" fill="none" stroke="#6387a5" stroke-miterlimit="10" stroke-width="1.3"/><path d="M220.473,336.539q-65.3-.919-130.614-.261" transform="translate(-86.704 -296.149)" fill="none" stroke="#6387a5" stroke-miterlimit="10" stroke-width="1.3"/><path d="M86.168,308.759c44.364-1.76,88.946,2.584,133.128-1.7" transform="translate(-85.651 -287.892)" fill="none" stroke="#6387a5" stroke-miterlimit="10" stroke-width="1.3"/><path d="M83.922,344.557c44.364-1.76,88.946,2.584,133.128-1.7" transform="translate(-85.01 -298.105)" fill="none" stroke="#6387a5" stroke-miterlimit="10" stroke-width="1.3"/><path d="M85.168,329.665c44.364-1.76,88.946,2.585,133.128-1.7" transform="translate(-85.365 -293.857)" fill="none" stroke="#6387a5" stroke-miterlimit="10" stroke-width="1.3"/><path d="M83.2,301.494l124.893-.75" transform="translate(-84.802 -286.09)" fill="none" stroke="#6387a5" stroke-miterlimit="10" stroke-width="1.3"/><path d="M204.753,294.3c-13.015-1.649-26.2-1.332-39.317-1.013L82.662,295.3" transform="translate(-84.65 -283.889)" fill="none" stroke="#6387a5" stroke-miterlimit="10" stroke-width="1.3"/><path d="M203.8,353.6c-13.015-1.65-26.2-1.333-39.317-1.013L81.714,354.6" transform="translate(-84.38 -300.808)" fill="none" stroke="#6387a5" stroke-miterlimit="10" stroke-width="1.3"/><path d="M200.778,288.911q-37.865-1.283-75.76-1.118c-8.781.038-17.71.156-26.093,2.7" transform="translate(-89.29 -282.389)" fill="none" stroke="#6387a5" stroke-miterlimit="10" stroke-width="1.3"/></g></g><path d="M207.045,230.561a2.15,2.15,0,0,1,1.451-2.729,3.164,3.164,0,0,1,3.132,1.079,6.22,6.22,0,0,1,1.314,3.189,7.882,7.882,0,0,1-.893,5.464,4.611,4.611,0,0,1-4.842,2.135" transform="translate(-131.605 -167.427)" fill="#ffd5c7"/><path d="M186.672,203.671s14.019,36.807,9.828,41-25.439,7.516-28.04,4.914a75.264,75.264,0,0,1-9.828-13.009c-2.767-5.3-6.649-17.922-3.18-23.7S181.493,198.493,186.672,203.671Z" transform="translate(-116.532 -160.107)" fill="#ffd5c7"/><path d="M179.017,224.259a13.357,13.357,0,0,0-10.77,2.465l.611,1.468a28.794,28.794,0,0,1,10.544-1.938A12.78,12.78,0,0,1,179.017,224.259Z" transform="translate(-120.574 -166.357)" fill="#01053f"/><path d="M202.1,218.776a5.723,5.723,0,0,0-6.184,3.106l.9,1.27a7.908,7.908,0,0,1,5.069-2.642Z" transform="translate(-128.468 -164.845)" fill="#01053f"/><path d="M187.217,233.345a1.1,1.1,0,1,1-1.094-1.221A1.163,1.163,0,0,1,187.217,233.345Z" transform="translate(-125.362 -168.679)" fill="#01053f"/><ellipse cx="1.094" cy="1.222" rx="1.094" ry="1.222" transform="translate(71.445 59.401)" fill="#01053f"/><line x1="1.777" y1="7.2" transform="translate(76.185 61.004)" fill="#ffd5c7" stroke="#ef927f" stroke-miterlimit="10" stroke-width="1"/><path d="M189.473,259.527l-1.156,20.214s-7.421,7.551-11.757,7.551c-8.383,0-19.751-14.266-19.751-14.266l5.781-21.914" transform="translate(-117.31 -174.097)" fill="#ffd5c7"/><path d="M177.309,228.875a43.79,43.79,0,0,1,8.733-2.4,8.321,8.321,0,0,0,2.277-.5,4.25,4.25,0,0,0,2.507-3.54c3.325,1.91,5.567,6.486,7.025,9.9,1.642,3.849,2.544,8.789-.344,12.3-3.821,4.646-12.025,4.476-17.394,5.64-4.708,1.021-9.775,1.824-14.215-.042-4.806-2.02-5.5-5.8-8.808-9.177.209,1.239-1.376,2.156-2.587,1.819a5.7,5.7,0,0,1-2.779-2.434,63.279,63.279,0,0,1-3.937-5.855,40.174,40.174,0,0,1-4.807-17.715,6.561,6.561,0,0,1,.55-3.658,25.136,25.136,0,0,0,1.785-2.456,9.018,9.018,0,0,0,.249-3.243,11.2,11.2,0,0,1,2.111-5.585c6.435-9.883,17.356-13.611,28.586-12.637,6.96.6,14.046,3.942,17.441,10.047a6.39,6.39,0,0,1,1,3.785c-.4,3.276-4.345,4.616-7.586,5.242a97.7,97.7,0,0,1-17.139,2.268c-5.089.068-10.14-.407-14.214,3.261a1.156,1.156,0,0,0-.482,1.062c-.062,3.209,1.251,6.262,2.481,9.227a15.252,15.252,0,0,0,2.075,3.912c1.816,2.221,4.762,2.678,7.494,2.811C170.758,231.069,174.105,229.956,177.309,228.875Z" transform="translate(-113.356 -156.415)" fill="#00275c"/><path d="M159.85,220.609a10.055,10.055,0,0,1,4.453-1.876c4.583-.941,9.292-.582,13.947-.847s9.5-1.265,13.147-4.47a5.224,5.224,0,0,0,1.677-2.306" transform="translate(-118.178 -162.684)" fill="none" stroke="#00275c" stroke-miterlimit="10" stroke-width="1"/><path d="M212.236,237.608a13.507,13.507,0,0,1,5.455,5.807,17.389,17.389,0,0,1,1.742,7.824c-.007,2.288-.582,4.853-2.52,6.07" transform="translate(-133.124 -170.244)" fill="none" stroke="#00275c" stroke-miterlimit="10" stroke-width="1"/><path d="M189.618,251.248l13.194-2.424a.43.43,0,0,1,.494.307c.442,1.568,1.71,7.547-4.307,8.533a8.431,8.431,0,0,1-9.783-5.718A.525.525,0,0,1,189.618,251.248Z" transform="translate(-126.547 -173.442)" fill="#fff"/><path d="M163.9,250.45c-2.207-4-5.985-10.023-9.208-7.248a3.671,3.671,0,0,0-1.05,1.932,8.193,8.193,0,0,0,4.991,9.374c2.371.854,5.374.535,5.509-2.534A4.783,4.783,0,0,0,163.9,250.45Z" transform="translate(-116.346 -171.638)" fill="#ffd5c7"/><path d="M156.7,248.654s-.558-2.539.711-2.539a2.936,2.936,0,0,1,2.59,2.031c.144.38-1.169,1.727-.1,2.286s1.625.406,2.336,1.117,1.016,2.539-.507,2.539" transform="translate(-117.245 -172.671)" fill="#ffd5c7" stroke="#ef927f" stroke-miterlimit="10" stroke-width="1"/><path d="M194.458,225.242s7.217,6.958,6.913,10.545c-.244,2.884-6.913,1.92-6.913,1.92" transform="translate(-128.052 -166.716)" fill="#ffd5c7" stroke="#ef927f" stroke-miterlimit="10" stroke-width="1"/><path d="M186.114,338.362s1.427-21.862-1.67-36.626" transform="translate(-125.195 -188.54)" fill="none" stroke="#01053f" stroke-miterlimit="10" stroke-width="1"/><path d="M156.366,270.481s11.189,20.194,17.622,22.338c-3.931,5.678-8.934,14.294-11.435,14.294-4.288,0-14.759-28.8-14.759-28.8Z" transform="translate(-114.738 -179.623)" fill="#fff"/><path d="M184.444,294.742c8.934-4.789,12.491-17.519,12.491-17.519l4.312,6.16s-2.867,23.152-6.441,23.152C192.663,306.535,184.444,294.742,184.444,294.742Z" transform="translate(-125.195 -181.546)" fill="#fff"/><path d="M183.644,307.3a.871.871,0,1,1-.871-.871A.87.87,0,0,1,183.644,307.3Z" transform="translate(-124.47 -189.879)" fill="#01053f"/><path d="M183.753,327.635a.871.871,0,1,1-.87-.871A.87.87,0,0,1,183.753,327.635Z" transform="translate(-124.501 -195.681)" fill="#01053f"/><line x1="2.118" y2="27.946" transform="translate(95.947 132.681)" fill="none" stroke="#01053f" stroke-miterlimit="10" stroke-width="1"/><path d="M144.175,226.291a35.777,35.777,0,0,0,2.273,18.441c1.381,3.17,5.407,10.586,9.967,8.242" transform="translate(-113.618 -167.015)" fill="none" stroke="#00275c" stroke-miterlimit="10" stroke-width="1"/></g></g><g transform="translate(70.886 175.109)"><path d="M200.092,405.21h24.8a7.347,7.347,0,0,0,7.347-7.347v-8.488a7.348,7.348,0,0,0-7.347-7.348H196.924l-4.179-4.014v19.851A7.347,7.347,0,0,0,200.092,405.21Z" transform="translate(-192.745 -378.012)" fill="#fffcfa" stroke="#ff796d" stroke-miterlimit="10" stroke-width="1"/><g transform="translate(8.753 14.533)"><path d="M204.992,399.9a1.468,1.468,0,0,1,1.477-1.549,1.435,1.435,0,0,1,1.452,1.549,1.459,1.459,0,0,1-1.5,1.551A1.445,1.445,0,0,1,204.992,399.9Z" transform="translate(-204.992 -398.347)" fill="#ff9e94"/><path d="M218.326,399.9a1.468,1.468,0,0,1,1.477-1.549,1.434,1.434,0,0,1,1.452,1.549,1.467,1.467,0,1,1-2.929,0Z" transform="translate(-208.796 -398.347)" fill="#ff9e94"/><path d="M231.659,399.9a1.468,1.468,0,0,1,1.477-1.549,1.435,1.435,0,0,1,1.452,1.549,1.459,1.459,0,0,1-1.5,1.551A1.445,1.445,0,0,1,231.659,399.9Z" transform="translate(-212.6 -398.347)" fill="#ff9e94"/></g></g></g><g transform="translate(149.633 84.671)"><g transform="translate(7.893 10.459)"><g transform="translate(60.339 145.851)"><path d="M455.067,425.159H390.643l6.429-31.12h51.565Z" transform="translate(-375.503 -394.039)" fill="#ffecee"/><path d="M395.377,408.781l3.046-14.741,51.565,4.022Z" transform="translate(-376.854 -394.039)" fill="#ff796d"/><path d="M6.485,0H88.218A6.485,6.485,0,0,1,94.7,6.485v0a0,0,0,0,1,0,0H0a0,0,0,0,1,0,0v0A6.485,6.485,0,0,1,6.485,0Z" transform="translate(0 29.541)" fill="#ffecee"/><line x2="63.658" transform="translate(15.58 29.541)" fill="#fcf8f7" stroke="#ff796d" stroke-miterlimit="10" stroke-width="1"/></g><rect width="215.382" height="149.872" rx="11.47" fill="#ffecee"/><g transform="translate(6.555 6.494)" fill="#fffcfa" stroke="#ff796d" stroke-miterlimit="10" stroke-width="1"><rect width="202.272" height="136.885" stroke="none"/><rect x="-0.5" y="-0.5" width="203.272" height="137.885" fill="none"/></g><path d="M560.48,189.965H533.461a25.8,25.8,0,0,0-6.021,5.474c-1.838,2.333-3.326,5.164-3.125,8.128.339,5.031,5.676,8.629,10.719,8.547s9.629-2.945,13.407-6.285c3.722-3.291,6.06-8.013,9.924-11.116a11.052,11.052,0,0,1,7.438-2.778A8.161,8.161,0,0,0,560.48,189.965Z" transform="translate(-353.296 -189.965)" fill="#ffecee" style="mix-blend-mode:multiply;isolation:isolate"/></g><g transform="translate(14.448 16.952)"><g clip-path="url(#c)"><path d="M315.9,388.1c-4.413-4.941-6.289-11.581-8.033-17.972-1.993-7.3-4-14.753-3.6-22.309.163-3.063.722-6.1.756-9.167.075-6.72-2.369-13.373-2.043-20.031a.707.707,0,0,1,1.284-.37,91.378,91.378,0,0,1,15.071,35.517c2.314,12.188,2.266,25.245,8.4,36.026" transform="translate(-296.7 -232.972)" fill="#d0e8c8"/><path d="M358.974,360.516c-4.419-10.252-8.6-20.739-10.269-31.777-1.222-8.083-1.065-16.284-.781-24.428.265-7.6.663-14.922,2.3-22.411,2.233-10.224,5.765-20.1,9.468-29.9a1.2,1.2,0,0,1,2.311.3c1.118,11.008,2.422,22,4.518,32.865,2.135,11.063,5.1,22.063,5.308,33.328.288,15.622-4.749,31.181-2.831,46.688" transform="translate(-309.474 -213.937)" fill="#d0e8c8"/><path d="M366.018,250.307c-3.871,17.161-3.17,35.008-1.627,52.531s3.909,35.05,3.3,52.631" transform="translate(-313.877 -213.675)" fill="none" stroke="#fff" stroke-miterlimit="10" stroke-width="1"/><path d="M367.627,255.128c.205,26.253,6.1,54.372,4.025,80.543-.57,7.178-1.738,14.339-1.485,21.536" transform="translate(-315.152 -215.05)" fill="none" stroke="#fff" stroke-miterlimit="10" stroke-width="1"/><path d="M376.139,313.72c.876,13.2,1.749,26.514-.182,39.6-1.029,6.973-2.855,13.984-1.955,20.976" transform="translate(-316.902 -231.767)" fill="none" stroke="#fff" stroke-miterlimit="10" stroke-width="1"/><path d="M357.326,265.23c-2.233,10.376-4.48,23.263-4.079,33.869.782,20.735,11.616,40.47,10.22,61.173" transform="translate(-311.036 -217.932)" fill="none" stroke="#fff" stroke-miterlimit="10" stroke-width="1"/><path d="M348.635,324.006c.464,4.12,1.309,8.187,2.154,12.246q2.627,12.631,5.254,25.262c1.137,5.467,2.29,10.983,4.58,16.075" transform="translate(-309.734 -234.701)" fill="none" stroke="#fff" stroke-miterlimit="10" stroke-width="1"/><path d="M337.392,336.059a224.214,224.214,0,0,1-9.483-89.091,274.338,274.338,0,0,1,4.1-27.188.97.97,0,0,1,1.916.081c1.229,11.467,6.036,22.566,9.869,33.6a213.726,213.726,0,0,1,9.133,103.26" transform="translate(-303.53 -204.742)" fill="#eff7eb"/><path d="M378.938,351.782c-.833-22.346-12.106-44.4-7.313-66.239,1.2-5.482,3.4-10.735,4.235-16.286.634-4.208.471-8.49.7-12.739a70.218,70.218,0,0,1,5.846-24.483c1.737-3.953,4.111-7.43,6.15-11.2.625-1.155,2.669-4.327,3.928-6.9a.878.878,0,0,1,1.65.247c2.444,13.88,3.952,29.453,2.395,43.506-.624,5.625-1.82,11.259-1.276,16.893.352,3.64,1.423,7.168,2.059,10.77,3.249,18.381-4.938,37.219-2.458,55.72" transform="translate(-315.955 -203.16)" fill="#eff7eb"/><path d="M483.883,347.313a90.129,90.129,0,0,1-.266-54.084,50.555,50.555,0,0,0,2.209-8.25c.67-5.018-.606-10.066-1-15.113-1.063-13.756,4.435-26.985,10.368-39.553a1.022,1.022,0,0,1,1.941.323c1.5,14.451,7.641,28.033,8.608,42.564a92.223,92.223,0,0,1-.769,21.256c-1.267,7.656-3.283,15.2-3.907,22.952-.476,5.916-.634,12.737-2.591,18.388" transform="translate(-347.098 -207.803)" fill="#eff7eb"/><path d="M526.391,362.542c.609.8,1.59-.61,1.562-1.612a48.334,48.334,0,0,0-6.21-22.363c-1.909-3.377-4.252-6.58-5.339-10.3a28.725,28.725,0,0,1-.652-10.026,30.608,30.608,0,0,1,1.9-9.726c2.1-5.035,6.356-8.826,9.191-13.486,6.464-10.622,3.02-24.291,8.081-35.707.613-1.381,3.19-1.3,3.576.1,1.762,6.414,4.906,13.636,5.63,20.123.894,8-3.176,15.981-2.39,24.1.649,6.708,4.048,13.14,3.361,19.843-.515,5.024-3.3,9.638-3.571,14.681-.224,4.119,1.244,8.113,2.08,12.153s.918,8.631-1.651,11.858" transform="translate(-357.372 -215.962)" fill="#d0e8c8"/><path d="M432.678,340.185c-6.571-17.768.45-28.869,1.434-35.755,2.5-17.485-.658-22.6-1.073-35.286-.277-8.5-1.2-17.088.35-25.449,2.388-12.864,10.511-24.527,13.134-37.061a1.689,1.689,0,0,1,3.284-.114q4.127,14.908,8.253,29.815c2.514,9.082,5.05,18.333,4.764,27.753-.179,5.891-1.461,11.686-2.149,17.539-.755,6.419-1.567,17.041-1.606,23.5-.059,9.908,5.149,16.407-1.339,36.783" transform="translate(-332.919 -200.828)" fill="#d0e8c8"/><path d="M302.995,318.884a225.2,225.2,0,0,1,9.3,39.006c.518,3.51.968,7.037,1.807,10.484a58.22,58.22,0,0,0,3.92,10.878" transform="translate(-296.712 -233.24)" fill="none" stroke="#fff" stroke-miterlimit="10" stroke-width="1"/><path d="M304.384,331.819c3.547,16.229,3.423,33.621,11.078,48.363" transform="translate(-297.108 -236.931)" fill="none" stroke="#fff" stroke-miterlimit="10" stroke-width="1"/><path d="M305.231,355.562a67.743,67.743,0,0,0,8.431,32.324" transform="translate(-297.35 -243.705)" fill="none" stroke="#fff" stroke-miterlimit="10" stroke-width="1"/><path d="M307.712,322.35c3.253,6.239,4.5,13.3,5.713,20.229q2.947,16.9,5.895,33.8" transform="translate(-298.058 -234.229)" fill="none" stroke="#fff" stroke-miterlimit="10" stroke-width="1"/><path d="M319.259,346.046c3.633,12.18,1.895,25.615,6.48,37.469" transform="translate(-301.352 -240.99)" fill="none" stroke="#fff" stroke-miterlimit="10" stroke-width="1"/><path d="M335.129,218.683c-1.039,20.591-2.046,41.542,2.973,61.539,1.384,5.512,3.215,10.9,4.735,16.379,1.366,4.921,2.48,9.909,3.495,14.914a314.961,314.961,0,0,1,5.008,33.03" transform="translate(-305.638 -204.652)" fill="none" stroke="#fff" stroke-miterlimit="10" stroke-width="1"/><path d="M330.32,244.959c-3.512,36.053,5.644,72.135,17.25,106.448" transform="translate(-304.291 -212.149)" fill="none" stroke="#fff" stroke-miterlimit="10" stroke-width="1"/><path d="M327.845,299.674c1.693,22.077,6.163,44.295,16.6,63.822" transform="translate(-303.802 -227.759)" fill="none" stroke="#fff" stroke-miterlimit="10" stroke-width="1"/><path d="M340.069,235.962c.439,37.837,15.337,74.6,14.08,112.423" transform="translate(-307.29 -209.582)" fill="none" stroke="#fff" stroke-miterlimit="10" stroke-width="1"/><path d="M354.022,279.506q1.734,18.577,4.323,37.062a154.036,154.036,0,0,1,1.8,16.953c.294,10.284-1.668,20.557-1.033,30.825" transform="translate(-311.271 -222.005)" fill="none" stroke="#fff" stroke-miterlimit="10" stroke-width="1"/><path d="M400.227,214.476c-2.6,6.562-2.485,8.312-3.012,15.351-1.625,21.725-3.25,43.451-4.509,65.2C391.7,312.5,390.931,330.151,394,347.377" transform="translate(-322.053 -203.452)" fill="none" stroke="#fff" stroke-miterlimit="10" stroke-width="1"/><path d="M392.406,223.327c-3.676,12.486-3.2,25.755-4.457,38.709-.538,5.55-1.4,11.064-2.04,16.6a212.408,212.408,0,0,0,3.811,71.131" transform="translate(-319.968 -205.977)" fill="none" stroke="#fff" stroke-miterlimit="10" stroke-width="1"/><path d="M380.877,250.911c.119,11,.221,22.161-2.569,32.8-1.019,3.887-2.419,7.68-3.167,11.629-1.612,8.509-.132,17.266,1.348,25.8l2.474,14.26c1.484,8.553,2.984,17.168,6.077,25.279" transform="translate(-317.096 -213.847)" fill="none" stroke="#fff" stroke-miterlimit="10" stroke-width="1"/><path d="M405.086,241.562q-1.215,8.219-2.428,16.44c-.61,4.129-1.22,8.263-1.529,12.426-1.211,16.347,2.252,32.749,1.336,49.115-.642,11.456-3.4,23.158-.37,34.224" transform="translate(-324.588 -211.18)" fill="none" stroke="#fff" stroke-miterlimit="10" stroke-width="1"/><path d="M440.072,242.744c-4.436,11.827-4.087,24.866-3.015,37.453s2.8,25.294.935,37.787c-.531,3.553-1.352,7.071-1.565,10.657a60.223,60.223,0,0,0,1.054,12.913q1.025,6.477,2.186,12.932" transform="translate(-334.765 -211.517)" fill="none" stroke="#fff" stroke-miterlimit="10" stroke-width="1"/><path d="M447.234,219.073c.307,14.1-5,27.814-5.208,41.915-.076,5.223.55,10.427.991,15.633a327.831,327.831,0,0,1,.4,42.4c-.375,8.366-.907,16.859.959,25.023" transform="translate(-336.377 -204.763)" fill="none" stroke="#fff" stroke-miterlimit="10" stroke-width="1"/><path d="M452.773,206.145q-2.683,36.9-2.146,73.94c.134,9.2.417,18.425-.569,27.57-1.488,13.816-5.821,28-1.757,41.29" transform="translate(-337.686 -201.075)" fill="none" stroke="#fff" stroke-miterlimit="10" stroke-width="1"/><path d="M458.069,221.15c3.613,15.69,1.149,32.053,1.4,48.152.121,7.706.868,15.414.405,23.106-1.179,19.582-10.149,38.426-8.851,58" transform="translate(-338.909 -205.356)" fill="none" stroke="#fff" stroke-miterlimit="10" stroke-width="1"/><path d="M468.6,258.616c3.313,17.837-.748,36.1-1.8,54.216q-.333,5.728-.264,11.47c.069,5.768.442,11.573-.409,17.278-.857,5.746-2.931,11.229-4.992,16.661" transform="translate(-341.829 -216.045)" fill="none" stroke="#fff" stroke-miterlimit="10" stroke-width="1"/><path d="M497.858,229.667c-4.6,10.693-8.982,21.837-9.049,33.478-.054,9.405,2.722,18.827,1.253,28.117-.48,3.037-1.407,5.985-2.081,8.985a102.448,102.448,0,0,0-1.92,18.557c-.418,10.918-.54,22.211,3.631,32.308" transform="translate(-348.886 -207.786)" fill="none" stroke="#fff" stroke-miterlimit="10" stroke-width="1"/><path d="M501.534,229.474c-4.158,12.472-4.532,25.878-4.011,39.015s1.9,26.281,1.086,39.4c-.925,15-4.695,30.028-2.465,44.89" transform="translate(-351.62 -207.731)" fill="none" stroke="#fff" stroke-miterlimit="10" stroke-width="1"/><path d="M503.261,237.272c-1.235,14.538.041,29.165,1.537,43.678a100.313,100.313,0,0,1,.819,15.652c-.282,5.229-1.409,10.371-2.167,15.552-.532,3.643-.883,7.308-1.234,10.973q-.535,5.592-1.069,11.182c-.527,5.52-1.047,11.17.314,16.546" transform="translate(-353.088 -209.956)" fill="none" stroke="#fff" stroke-miterlimit="10" stroke-width="1"/><path d="M507.467,257.075c1.882,18.408,3.758,37.065.861,55.342-.908,5.728-2.279,11.377-3.125,17.115a189.192,189.192,0,0,0-1.485,23.46" transform="translate(-353.98 -215.606)" fill="none" stroke="#fff" stroke-miterlimit="10" stroke-width="1"/><path d="M542.369,257.4a47.556,47.556,0,0,0-2.069,11.817c-.165,3.522.062,7.055-.115,10.577-.353,7.019-2.3,13.849-4.31,20.584-2.541,8.523-5.226,17.289-4.362,26.141a66.609,66.609,0,0,0,1.646,8.739q2.112,8.989,4.222,17.978a16.7,16.7,0,0,0,2.163,5.819" transform="translate(-361.863 -215.698)" fill="none" stroke="#fff" stroke-miterlimit="10" stroke-width="1"/><path d="M545.1,260.26c-.335,4.3-.047,8.623-.187,12.932-.54,16.658-7.458,32.922-5.841,49.51.364,3.742,1.161,7.426,1.774,11.135a229.08,229.08,0,0,1,2.26,24.488" transform="translate(-363.997 -216.514)" fill="none" stroke="#fff" stroke-miterlimit="10" stroke-width="1"/><path d="M548.668,265.493c1.525,13.939-3.541,27.811-3.353,41.831a145.681,145.681,0,0,0,1.663,16.467,243.42,243.42,0,0,1,1.886,37.179" transform="translate(-365.846 -218.007)" fill="none" stroke="#fff" stroke-miterlimit="10" stroke-width="1"/><path d="M535.639,269.368c2.13,19.155-13.7,39.075-11.334,58.2a60.634,60.634,0,0,0,1.362,6.749l7.266,30.09" transform="translate(-359.784 -219.113)" fill="none" stroke="#fff" stroke-miterlimit="10" stroke-width="1"/><path d="M555.867,371.527c-2.738-3.456-5.555-7.074-6.507-11.38-.724-3.275-.3-6.685-.55-10.029-.364-4.929-2.175-9.7-2.194-14.642-.039-10.256,7.163-18.488,10.865-27.559,1.835-4.5,1.486-8.491,2.326-13.133a142.9,142.9,0,0,1,3.877-16.538,1.169,1.169,0,0,1,2.284.269c1.409,21.016,8.612,41.847,5.648,62.692-1.84,12.941-7.5,24.981-13.094,36.8" transform="translate(-366.219 -221.41)" fill="#eff7eb"/><path d="M569.046,277.8c-2.15,10.327.31,21.131-1.317,31.553-.574,3.679-1.651,7.261-2.4,10.908-1.465,7.15-1.652,14.491-1.834,21.787q-.295,11.8-.589,23.6" transform="translate(-370.867 -221.517)" fill="none" stroke="#fff" stroke-miterlimit="10" stroke-width="1"/><path d="M564.8,298.55c.1,10.617-2.542,21.045-5.127,31.342a71.438,71.438,0,0,0-2.439,13.211,72.065,72.065,0,0,0,.482,10.925q.822,8.653,1.645,17.3" transform="translate(-369.23 -227.439)" fill="none" stroke="#fff" stroke-miterlimit="10" stroke-width="1"/><path d="M557.236,326.9c-2.4,5.377-4.833,10.856-5.529,16.7-.534,4.485-.025,9.02.485,13.508.85,7.478,1.712,15,3.846,22.217" transform="translate(-367.607 -235.528)" fill="none" stroke="#fff" stroke-miterlimit="10" stroke-width="1"/><path d="M573.655,305.692c-.109,13.487-.222,27.037-2.375,40.352-.657,4.069-1.505,8.111-1.932,12.21a60.151,60.151,0,0,0,.387,15.429" transform="translate(-372.612 -229.476)" fill="none" stroke="#fff" stroke-miterlimit="10" stroke-width="1"/><path d="M578.041,357.957a125.149,125.149,0,0,0-3.95,29.86" transform="translate(-374.057 -244.388)" fill="none" stroke="#fff" stroke-miterlimit="10" stroke-width="1"/></g></g><g transform="translate(21.199 22.861)"><g transform="translate(53.499 10.947)"><path d="M447.244,228.758a16.034,16.034,0,0,1,6.77,8.241c1.231,3.421,1.351,7.854,3.523,10.77,1.7,2.28,4.2,3.623,6.632,5.089s5.044,2.875,5.6,5.664c.855,4.3-3.12,8.451-2.345,12.769.823,4.589,6.188,6.492,9.718,9.537a14.515,14.515,0,0,1-1.175,22.9c-2.992,2.088-6.639,2.969-10.2,3.781-12.078,2.758-24.273,5.206-36.637,5.988s-24.951-.138-36.726-3.987a14.591,14.591,0,0,1-4.835-2.346,16.121,16.121,0,0,1-3.212-4.084c-2.323-3.72-4.688-7.544-5.552-11.844s.077-9.232,3.452-12.025c2.09-1.73,5.343-2.916,6.9-5.334,2.44-3.78-.986-7.288-1.806-11.011-.894-4.058,2.529-6.762,5.192-9.1,2.969-2.6,4-5.184,4.966-8.961a29.453,29.453,0,0,1,34.6-21.555" transform="translate(-378.506 -222.636)" fill="#300606"/><path d="M483.939,242.8c1.434,3.438,1.768,7.456,4.112,10.32,1.833,2.239,4.592,3.385,7.112,4.748s5.075,3.264,5.8,6.093c1.112,4.365-2.606,8.853-1.574,13.238,1.1,4.66,6.567,6.3,10.274,9.217,3.5,2.757,5.75,11.992-.019,17.635" transform="translate(-408.586 -228.389)" fill="none" stroke="#300606" stroke-miterlimit="10" stroke-width="1"/><path d="M398.7,250.307a22.017,22.017,0,0,1-7.884,12.133c-2.609,2-5.138,4.809-4.956,8.137.126,2.326,1.571,4.375,1.936,6.673a7.382,7.382,0,0,1-1.291,5.421c-1.649,2.268-4.472,3.38-6.186,5.6-2.1,2.713-2.105,6.71-.622,9.818a16.653,16.653,0,0,0,7.208,7.062" transform="translate(-378.547 -230.531)" fill="none" stroke="#300606" stroke-miterlimit="10" stroke-width="1"/></g><g transform="translate(4.685 60.213)"><path d="M358.27,336.9,341.765,354.62l-16.424-35.39-6.757,1.618S315.81,375,336.935,379.712c17.789,3.964,46.192-23.961,46.192-23.961" transform="translate(-312.561 -299.46)" fill="#ffc5ae"/><path d="M321.978,314.352s2.206-3.24,2.447-5.7.411-9.563-.355-9.933c-.938-.454-2.043,2.98-2.113,3.121-.176.351-2.116-10.4-3.112-10.274s-.337,7.408-.337,7.408-2.225-7.609-3.261-7.286.526,8.017.526,8.017-2.1-7.116-3.05-6.519,1.035,7.99,1.035,7.99-2.444-6.355-3.346-5.673c-1.08.818,2.253,16.355,5.815,17.8l.961,3.558" transform="translate(-310.205 -291.568)" fill="#ffc5ae"/><path d="M324.767,307.194s-4.207,3.78-2.7,7.381" transform="translate(-313.497 -296.026)" fill="none" stroke="#ef927f" stroke-miterlimit="10" stroke-width="1"/></g><path d="M516.191,350.122l19.215,28.915H502.854l-12.167-11.579" transform="translate(-357.013 -248.061)" fill="#ffc5ae"/><path d="M400.607,321.508s-12.221,2.373-22.487,9.3a65.51,65.51,0,0,0-16.91,16.127l20.46,23.941H467.28L489.967,356.1s-13.447-21-24.7-26.788a103.928,103.928,0,0,0-19.266-7.2l-29.766,6.9Z" transform="translate(-320.072 -239.897)" fill="#f7633a"/><path d="M415.334,232.848c-4.865,11.958-9.593,39.368,7.569,43.344,24.306,5.63,31.049-21.462,32.318-31.731C457.237,228.164,420.2,220.89,415.334,232.848Z" transform="translate(-334.227 -212.91)" fill="#ffc5ae"/><path d="M429.188,287.363l-1.216,19.6-11.638,3.9s-.206,14.126,4.466,16.785c5.769,3.283,30.375,3.924,34.57-.272s6.36-15.928,6.36-15.928l-14.538-5.573-4-21.672" transform="translate(-335.799 -229.255)" fill="#ffc5ae"/><path d="M434.844,234.263c-5.418,6.469-19.546,9.435-25.848,7.546-6.728-2.018-7.944-9.408-4.654-14.2a21.829,21.829,0,0,1,8.905-7.051,35.892,35.892,0,0,1,26.375-1.529c6.617,2.218,12.767,6.712,15.5,13.133a25.371,25.371,0,0,1,1.792,7.705,37.751,37.751,0,0,1-1.616,14.713c-.567,1.784-1.411,3.686-3.108,4.474-1.574.732-3.438.284-5.04-.386-6.549-2.741-9.76-13.5-12.309-24.408" transform="translate(-331.877 -210.143)" fill="#300606"/><path d="M458.754,219.972a9.2,9.2,0,0,1,1.364-8.879c8.859-11.091,27.28,4.828,15.158,14.662-3.291,2.669-7.872,3.31-12.053,2.621" transform="translate(-347.735 -207.318)" fill="#300606"/><path d="M480.675,214.625a8.835,8.835,0,0,1,1.543,10.966,11.3,11.3,0,0,1-4.611,4.117,15.452,15.452,0,0,1-6.895,1.7" transform="translate(-351.314 -209.403)" fill="none" stroke="#300606" stroke-miterlimit="10" stroke-width="1"/><path d="M433.787,296.022s6.875.552,12.015-2.992" transform="translate(-340.779 -231.772)" fill="none" stroke="#ef927f" stroke-miterlimit="10" stroke-width="1"/><line x1="1.862" y1="6.656" transform="translate(33.889 115.373)" fill="none" stroke="#ef927f" stroke-miterlimit="10" stroke-width="1"/><path d="M389.836,379.212a57.449,57.449,0,0,1,8.456-24.051" transform="translate(-328.239 -249.499)" fill="none" stroke="#aa311d" stroke-miterlimit="10" stroke-width="1"/><line x2="7.995" y2="15.742" transform="translate(131.283 115.373)" fill="none" stroke="#aa311d" stroke-miterlimit="10" stroke-width="1"/><path d="M458.192,221.226s10.383,2.945,16.05,10.746" transform="translate(-347.742 -211.286)" fill="none" stroke="#fb5910" stroke-miterlimit="10" stroke-width="1"/><g transform="translate(50.684 89.909)"><line x2="2.315" y2="2.409" transform="translate(56.81 35.035)" fill="none" stroke="#ffad76" stroke-linecap="round" stroke-linejoin="round" stroke-width="2"/><line x2="2.309" y2="0.226" transform="translate(75.968 16.166)" fill="none" stroke="#ffad76" stroke-linecap="round" stroke-linejoin="round" stroke-width="2"/><line y1="2.688" x2="1.826" transform="translate(24.609 17.471)" fill="none" stroke="#ffad76" stroke-linecap="round" stroke-linejoin="round" stroke-width="2"/><line y1="1.026" x2="2.74" transform="translate(15.744 0.557)" fill="none" stroke="#ffad76" stroke-linecap="round" stroke-linejoin="round" stroke-width="2"/><line x2="1.842" y2="2.467" transform="translate(11.284 10.598)" fill="none" stroke="#ffad76" stroke-linecap="round" stroke-linejoin="round" stroke-width="2"/><line x2="0.39" y2="3.166" transform="translate(78.871)" fill="none" stroke="#ffad76" stroke-linecap="round" stroke-linejoin="round" stroke-width="2"/><line x2="2.851" y2="0.947" transform="translate(0 16.982)" fill="none" stroke="#ffad76" stroke-linecap="round" stroke-linejoin="round" stroke-width="2"/><line x2="2.366" y2="1.612" transform="translate(63.148 21.422)" fill="none" stroke="#ffad76" stroke-linecap="round" stroke-linejoin="round" stroke-width="2"/><line x2="2.381" y2="1.697" transform="translate(87.404 9.85)" fill="none" stroke="#ffad76" stroke-linecap="round" stroke-linejoin="round" stroke-width="2"/><line y1="1.599" x2="2.448" transform="translate(97.08 5.828)" fill="none" stroke="#ffad76" stroke-linecap="round" stroke-linejoin="round" stroke-width="2"/><line x2="0.886" y2="2.688" transform="translate(53.015 14.409)" fill="none" stroke="#ffad76" stroke-linecap="round" stroke-linejoin="round" stroke-width="2"/><line x2="3.065" y2="0.077" transform="translate(106.483 20.793)" fill="none" stroke="#ffad76" stroke-linecap="round" stroke-linejoin="round" stroke-width="2"/><line x1="3.153" y2="1.052" transform="translate(36.416 15.227)" fill="none" stroke="#ffad76" stroke-linecap="round" stroke-linejoin="round" stroke-width="2"/><line y1="0.883" x2="2.894" transform="translate(89.528 33.176)" fill="none" stroke="#ffad76" stroke-linecap="round" stroke-linejoin="round" stroke-width="2"/><line y1="1.448" x2="2.982" transform="translate(46.074 27.677)" fill="none" stroke="#ffad76" stroke-linecap="round" stroke-linejoin="round" stroke-width="2"/><line y1="2.79" x2="1.2" transform="translate(69.707 32.664)" fill="none" stroke="#ffad76" stroke-linecap="round" stroke-linejoin="round" stroke-width="2"/><line y1="2.79" x2="1.2" transform="translate(90.374 19.476)" fill="none" stroke="#ffad76" stroke-linecap="round" stroke-linejoin="round" stroke-width="2"/><line x2="2.619" y2="1.555" transform="translate(37.31 28.4)" fill="none" stroke="#ffad76" stroke-linecap="round" stroke-linejoin="round" stroke-width="2"/><line x2="1.251" y2="3.246" transform="translate(22.299 32.436)" fill="none" stroke="#ffad76" stroke-linecap="round" stroke-linejoin="round" stroke-width="2"/><line x1="3.285" y2="1.145" transform="translate(8.138 24.892)" fill="none" stroke="#ffad76" stroke-linecap="round" stroke-linejoin="round" stroke-width="2"/></g><path d="M417.686,259.994a1.055,1.055,0,1,0,1.055-1.055A1.055,1.055,0,0,0,417.686,259.994Z" transform="translate(-336.185 -222.046)" fill="#300606"/><path d="M444.857,264.809a1.055,1.055,0,1,1-1.055-1.055A1.054,1.054,0,0,1,444.857,264.809Z" transform="translate(-343.335 -223.42)" fill="#300606"/><path d="M440.4,269.889c2.26-1.682,6.616.966,6.177,4.144-.4,2.866-4.137,3.382-6.119,2.468a3.511,3.511,0,0,1-1.795-3.236A4.417,4.417,0,0,1,440.4,269.889Z" transform="translate(-342.171 -225.021)" fill="#f9af95"/><path d="M414.468,267.265a3.421,3.421,0,0,1,5.194,3.484c-.334,2.41-3.479,2.844-5.146,2.075a2.954,2.954,0,0,1-1.509-2.721A3.434,3.434,0,0,1,414.468,267.265Z" transform="translate(-334.85 -224.262)" fill="#f9af95"/><path d="M427.906,266.7s-3.942,6.07-2.889,7.121,3.949,1.519,3.949,1.519" transform="translate(-338.226 -224.262)" fill="none" stroke="#ef927f" stroke-miterlimit="10" stroke-width="1"/><path d="M441.151,259.161s5.345-3.387,8.3,3.027" transform="translate(-342.88 -221.854)" fill="none" stroke="#300606" stroke-linecap="round" stroke-linejoin="round" stroke-width="1"/><path d="M414.614,254.968s4.184-2.651,6.5,2.37" transform="translate(-335.309 -220.713)" fill="none" stroke="#300606" stroke-linecap="round" stroke-linejoin="round" stroke-width="1"/><path d="M424.084,282.058l8.471-.139a.44.44,0,0,1,.447.421c.064,1.3-.055,5.119-3.642,5.525-4.5.51-5.54-3.666-5.768-5.227A.505.505,0,0,1,424.084,282.058Z" transform="translate(-337.868 -228.602)" fill="#fff"/><g transform="translate(109.31 45.255)"><path d="M456.6,280.335a3.46,3.46,0,0,0,3.414,3.157c4.919,0,9.356-5.68,8.066-9.657-1.948-6.008-7.938-2.011-8.779-.332" transform="translate(-456.597 -270.639)" fill="#ffc5ae"/><g transform="translate(2.455 10.624)"><path d="M461.258,286.083l-.044-.137a.614.614,0,0,0-.741-.421.535.535,0,0,0-.42.421.615.615,0,0,0,.42.741l.136.044a.531.531,0,0,0,.649-.649Z" transform="translate(-460.031 -285.504)" fill="#f7633a"/></g><path d="M462.052,281.419c-1.107.269-3.021.205-2.863-1.349.142-1.4,1.624-1.062,2.35-1.94a3.306,3.306,0,0,0,.49-1.349,3.189,3.189,0,0,1,1.229-1.921,1.821,1.821,0,0,1,2.167.061,2.823,2.823,0,0,1,.658,2.038c.011.305-.074.717-.379.726" transform="translate(-457.334 -271.751)" fill="none" stroke="#ef927f" stroke-miterlimit="10" stroke-width="1"/></g><g transform="translate(0 2.519)"><path d="M498.132,313.454a.954.954,0,1,1-.954-.954A.954.954,0,0,1,498.132,313.454Z" transform="translate(-358.592 -239.846)" fill="#fff"/><path d="M421.21,211.8a.954.954,0,1,1-.954-.954A.954.954,0,0,1,421.21,211.8Z" transform="translate(-336.646 -210.843)" fill="#d0e8c8"/><path d="M506.3,253.888a.954.954,0,1,1-.954-.954A.954.954,0,0,1,506.3,253.888Z" transform="translate(-360.923 -222.852)" fill="#d0e8c8"/><path d="M322.624,268.987a.954.954,0,1,1-.954-.954A.954.954,0,0,1,322.624,268.987Z" transform="translate(-308.519 -227.16)" fill="#d0e8c8"/><path d="M391.45,313.454a.954.954,0,1,1-.954-.954A.954.954,0,0,1,391.45,313.454Z" transform="translate(-328.155 -239.846)" fill="#fff"/><path d="M350.46,293.764a.954.954,0,1,1-.954-.954A.954.954,0,0,1,350.46,293.764Z" transform="translate(-316.461 -234.229)" fill="#fff"/><path d="M368.808,306.658a.954.954,0,1,1-.954-.954A.954.954,0,0,1,368.808,306.658Z" transform="translate(-321.696 -237.907)" fill="#fff"/><path d="M377.134,239.9a.954.954,0,1,1-.954-.954A.954.954,0,0,1,377.134,239.9Z" transform="translate(-324.071 -218.862)" fill="#eff7eb"/><path d="M527.01,285.124a.954.954,0,1,1-.954-.954A.954.954,0,0,1,527.01,285.124Z" transform="translate(-366.832 -231.764)" fill="#eff7eb"/><path d="M541.94,241.237a.954.954,0,1,1-.953-.954A.954.954,0,0,1,541.94,241.237Z" transform="translate(-371.091 -219.242)" fill="#eff7eb"/><path d="M559.514,236.762a.954.954,0,1,1-.954-.954A.954.954,0,0,1,559.514,236.762Z" transform="translate(-376.105 -217.966)" fill="#eff7eb"/><path d="M305.558,285.124a.954.954,0,1,1-.954-.954A.954.954,0,0,1,305.558,285.124Z" transform="translate(-303.65 -231.764)" fill="#eff7eb"/><path d="M404.07,295.921a.713.713,0,1,1-.713-.713A.713.713,0,0,1,404.07,295.921Z" transform="translate(-331.894 -234.913)" fill="#fff"/><path d="M475.205,250.023a.713.713,0,1,1-.713-.713A.713.713,0,0,1,475.205,250.023Z" transform="translate(-352.189 -221.818)" fill="#fff"/><path d="M566.869,357.922a.713.713,0,1,1-.713-.713A.712.712,0,0,1,566.869,357.922Z" transform="translate(-378.341 -252.602)" fill="#fff"/><circle cx="0.712" cy="0.712" r="0.712" transform="translate(181.03 74.777)" fill="#d0e8c8"/><path d="M313.383,370.067a.712.712,0,1,1-.713-.713A.712.712,0,0,1,313.383,370.067Z" transform="translate(-306.021 -256.067)" fill="#fff"/><path d="M552.5,292.649a.954.954,0,1,1-.953-.954A.953.953,0,0,1,552.5,292.649Z" transform="translate(-374.103 -233.911)" fill="#fff"/><path d="M340.656,334.953A.954.954,0,1,1,339.7,334,.954.954,0,0,1,340.656,334.953Z" transform="translate(-313.664 -245.98)" fill="#fff"/></g></g><g transform="translate(0 24.824)"><path d="M310.785,210.065H284.2a10.207,10.207,0,0,0-10.207,10.207v11.792A10.207,10.207,0,0,0,284.2,242.271h43.4a.543.543,0,0,0,.319-.983l-6.927-5.016v-16A10.207,10.207,0,0,0,310.785,210.065Z" transform="translate(-273.989 -210.065)" fill="#fffcfa" stroke="#ff796d" stroke-miterlimit="10" stroke-width="1"/><path d="M292.838,237.743l-2.023-2.424a2.2,2.2,0,0,1,.28-3.1l2.33-1.944a2.2,2.2,0,0,1,3.1.281s1.076,1.617,2.339,1.329c1.437-.329,4.56-2.609,6.242-4.376,1.184-1.244-.807-3.439-.807-3.439a2.2,2.2,0,0,1,.28-3.1l2.33-1.944a2.2,2.2,0,0,1,3.1.281l2.023,2.424C316.6,227.187,296.811,242.5,292.838,237.743Z" transform="translate(-278.643 -212.473)" fill="#ff9e94"/></g><g transform="translate(174.364)"><path d="M521.549,185.14c-1.969,2.223-3.618,4.964-3.589,7.934.049,5.043,5.169,8.942,10.207,9.152s9.784-2.383,13.748-5.5c3.906-3.072,7.632-6.394,11.669-9.268,4.383-3.121,8.273-5.337,15.209-3.949a40.457,40.457,0,0,0-4.753-3.363,34.742,34.742,0,0,0-5.754-2.669,36.92,36.92,0,0,0-13.021-2.14C536.753,175.475,527.3,178.648,521.549,185.14Z" transform="translate(-517.96 -175.331)" fill="#d0e8c8"/><path d="M531.514,196.416a24.623,24.623,0,0,1,9.084-12.081c4.195-2.941,11.77-5.8,23.584-4.944" transform="translate(-521.827 -176.445)" fill="none" stroke="#619e7f" stroke-miterlimit="10" stroke-width="1"/></g></g><g transform="translate(4.146 177.848)"><path d="M165.077,369.086a6.684,6.684,0,0,1,5.545,1.8c1.674,1.519,2.372,3.923,3.781,5.7a4.7,4.7,0,0,0,3.474,1.833c3.2.1,3.31-4.526,2.624-7.037-1.093-4-3.666-5.739-6.663-8.035" transform="translate(-97.429 -322.151)" fill="#5e8e76"/><path d="M138.678,379.319c.266-25.551,28.1-24.77,31.586-13.428a13.116,13.116,0,0,0-12.391,4.079c-1.867,2-3.25,4.55-5.167,6.484-3.38,3.411-8.017,4.53-12.459,5.234a4.6,4.6,0,0,1-2.3-.038,2.106,2.106,0,0,1-1.39-1.926" transform="translate(-89.291 -320.726)" fill="#d0e8c8"/><path d="M92.176,357.379a26.279,26.279,0,0,0-9.151,1.33,11.241,11.241,0,0,0-3.7,4.724,6.622,6.622,0,0,0,1.419,7.135,7.427,7.427,0,0,0,5.478,1.6,5.924,5.924,0,0,0,2.732-.735c2.082-1.267,2.565-4.074,3.74-6.245a9.4,9.4,0,0,1,8.16-4.881" transform="translate(-72.832 -320.441)" fill="#5e8e76"/><path d="M86.641,366.856c.1-3.77.649-6.717,3.888-9.1A10.261,10.261,0,0,1,97.5,355.8" transform="translate(-75.051 -319.986)" fill="none" stroke="#3f6d54" stroke-miterlimit="10" stroke-width="1"/><path d="M84.686,357.764a14.443,14.443,0,0,1,12.777,4.459c1.541,1.616,3.02,3.7,5.214,3.9,2.267.2,5.129.414,5.209-4.339.061-3.607-2.12-4.535-4.034-5.8a13.536,13.536,0,0,0-6.5-1.888c-2.658-.2-9.117-.009-12.667,3.669" transform="translate(-74.493 -319.495)" fill="#b3d1a7"/><path d="M103.371,355.492c3.552,1.726,6.082,5.567,7.391,9.735a45.083,45.083,0,0,1,1.571,13.105" transform="translate(-79.824 -319.909)" fill="none" stroke="#5e8e76" stroke-miterlimit="10" stroke-width="1"/><path d="M112.581,312.8c-2.166-2.291-5.525-2.764-8.618-3.108a9.571,9.571,0,0,0-5.091.358,7.15,7.15,0,0,0-2.247,1.77,9.289,9.289,0,0,0-2.447,4.93,5.759,5.759,0,0,0,1.758,5.074,7,7,0,0,0,4.321,1.388,7.442,7.442,0,0,0,3.064-.418c2.481-1,3.747-3.759,5.633-5.688a10.269,10.269,0,0,1,8.4-3.009" transform="translate(-77.187 -306.793)" fill="#5e8e76"/><path d="M120.328,324.049c-7.153-1.233-7.114-6.54-9.019-9.517-2.561-4-6.076-4.885-9.636-5.82,2.371-1.96,5.489-2.444,9.438-2.171,2.912-.7,6.792-1.4,9.526-.156a9.49,9.49,0,0,1,5.494,6.8c.513,3.022,1.286,8.927-5.8,10.858" transform="translate(-79.34 -305.705)" fill="#d0e8c8"/><path d="M105.7,355.549c2.762-5.106,1.9-13.9.462-19.552a31.9,31.9,0,0,0-8.808-14.745,24.588,24.588,0,0,0-10.284-6.361,14.326,14.326,0,0,0-11.688,1.5,10.866,10.866,0,0,0-4.81,10.64c.971,5.236,5.768,9.082,10.692,10.785,14.211,4.916,16.953,17.736,24.437,17.736" transform="translate(-70.424 -308.154)" fill="#d0e8c8"/><path d="M159.192,346.15a7.488,7.488,0,0,1,6.5,1.832c1.572,1.456,2.8,2.966,5.055,3.22,3.387.38,7.952-2.947,5.793-6.743a6.246,6.246,0,0,0-3.008-2.524,18.115,18.115,0,0,0-3.816-1.031,9.334,9.334,0,0,0-4.174-.166" transform="translate(-95.75 -315.649)" fill="#5e8e76"/><path d="M72.233,327.458c3.276-2.323,7.781-1.453,11.413.221,8.088,3.727,14.376,10.893,18.315,19.041s5.689,17.249,6.389,26.316" transform="translate(-70.94 -311.507)" fill="none" stroke="#619e7f" stroke-miterlimit="10" stroke-width="1"/><path d="M163.64,340.7c-4.269-.247-7.738,3.885-9.609,8.16a18.743,18.743,0,0,1-8.012,8.844c-3.344,1.849-8.165,3.284-11.575.9-.071-.051-.143-.1-.213-.157-1.656-1.294-2.239-3.838-1.837-6.044a13.141,13.141,0,0,1,2.975-5.793c6.777-8.363,18.739-9.7,28.272-5.914" transform="translate(-88.069 -315.115)" fill="#d0e8c8"/><path d="M134.032,381.16a61.872,61.872,0,0,1,1.7-14.868c1.131-5.254,2.583-10.51,5.242-15.149s6.65-8.652,11.619-10.375a17.088,17.088,0,0,1,11.5.234" transform="translate(-88.567 -315.456)" fill="none" stroke="#619e7f" stroke-miterlimit="10" stroke-width="1"/><path d="M115.156,307.171c4.1.913,6.305,5.467,7.439,9.614a87.106,87.106,0,0,1,2.576,21.687c.14,9.389-.424,18.772-.987,28.145" transform="translate(-83.186 -306.123)" fill="none" stroke="#619e7f" stroke-miterlimit="10" stroke-width="1"/><path d="M168.785,361.269c-3.388-1.356-7.113.064-10.217,2.233a28.237,28.237,0,0,0-11.444,18.693" transform="translate(-92.307 -321.406)" fill="none" stroke="#619e7f" stroke-miterlimit="10" stroke-width="1"/><path d="M100.3,387.658l9.3,40.587h30.3l9.3-40.587Z" transform="translate(-78.949 -329.086)" fill="#fff" stroke="#ff796d" stroke-miterlimit="10" stroke-width="1"/><path d="M146.728,410.309h-40.66l1.311,5.721,39-4.2Z" transform="translate(-80.594 -335.549)" fill="#ffecee"/><line x2="42.346" transform="translate(24.693 74.7)" fill="none" stroke="#ff796d" stroke-miterlimit="10" stroke-width="1"/><g transform="translate(-78.412 -328.777)" fill="#fff" stroke-miterlimit="10"><path d="M 147.329833984375 403.9769592285156 L 146.9131774902344 403.9769592285156 L 101.5195159912109 403.9769592285156 L 101.1028671264648 403.9769592285156 L 101.027717590332 403.567138671875 L 97.92829132080078 386.6640930175781 L 97.820068359375 386.0739135742188 L 98.42008972167969 386.0739135742188 L 150.0125885009766 386.0739135742188 L 150.6126098632812 386.0739135742188 L 150.50439453125 386.6640930175781 L 147.4049835205078 403.567138671875 L 147.329833984375 403.9769592285156 Z" stroke="none"/><path d="M 146.9131774902344 403.4769592285156 L 150.0125885009766 386.5739135742188 L 98.42008972167969 386.5739135742188 L 101.5195159912109 403.4769592285156 L 146.9131774902344 403.4769592285156 M 147.7464904785156 404.4769592285156 L 146.9131774902344 404.4769592285156 L 101.5195159912109 404.4769592285156 L 100.6862106323242 404.4769592285156 L 100.5359191894531 403.6573181152344 L 97.43649291992188 386.7542724609375 L 97.22004699707031 385.5739135742188 L 98.42008972167969 385.5739135742188 L 150.0125885009766 385.5739135742188 L 151.2126312255859 385.5739135742188 L 150.9961853027344 386.7542724609375 L 147.8967742919922 403.6573181152344 L 147.7464904785156 404.4769592285156 Z" stroke="none" fill="#ff796d"/></g></g><g transform="translate(106.948)"><path d="M268.188,64.616v67.75c0,4.284,4.1,7.757,9.149,7.757H394.516c5.053,0,9.149-3.473,9.149-7.757V64.616c0-4.284-4.1-7.757-9.149-7.757H277.337C272.284,56.859,268.188,60.332,268.188,64.616Z" transform="translate(-229.65 -56.859)" fill="#ffecee"/><g transform="translate(167.719 4.116) rotate(90)" fill="#d0ede8"><path d="M 75.53116607666016 123.3835906982422 L 75.03116607666016 123.3835906982422 L -1.577054490553564e-06 123.3835906982422 L -0.5000015497207642 123.3835906982422 L -0.5000015497207642 122.8835906982422 L -0.5000015497207642 6.919039151398465e-06 L -0.5000015497207642 -0.4999930858612061 L -1.577054490553564e-06 -0.4999930858612061 L 75.03116607666016 -0.4999930858612061 L 75.53116607666016 -0.4999930858612061 L 75.53116607666016 6.919039151398465e-06 L 75.53116607666016 122.8835906982422 L 75.53116607666016 123.3835906982422 Z" stroke="none"/><path d="M 0 -7.62939453125e-06 L 0 122.8835754394531 L 75.03116607666016 122.8835754394531 L 75.03116607666016 -7.62939453125e-06 L 0 -7.62939453125e-06 M -1 -1.000007629394531 L 0 -1.000007629394531 L 75.03116607666016 -1.000007629394531 L 76.03116607666016 -1.000007629394531 L 76.03116607666016 -7.62939453125e-06 L 76.03116607666016 122.8835754394531 L 76.03116607666016 123.8835754394531 L 75.03116607666016 123.8835754394531 L 0 123.8835754394531 L -1 123.8835754394531 L -1 122.8835754394531 L -1 -7.62939453125e-06 L -1 -1.000007629394531 Z" stroke="none" fill="#ff796d"/></g><g transform="translate(44.835 4.116)"><g transform="translate(0 0)" clip-path="url(#d)"><g transform="translate(-10.57 -21.693)"><path d="M348.4,139.4c-1.712-14.239-.658-29.031-.687-43.35-.037-18.465,1.353-38.406-3.03-56.444" transform="translate(-285.739 -34.36)" fill="#0880ae" stroke="#ffd9d4" stroke-miterlimit="10" stroke-width="7"/><path d="M387.676,39.6c-3.237,22.611-.1,51.025.565,73.566.3,10.277.027,20.4,1.541,30.636" transform="translate(-297.594 -34.36)" fill="#0880ae" stroke="#ffd9d4" stroke-miterlimit="10" stroke-width="7"/><path d="M426.687,133.051c-1.243-18.812-2.486-37.643-2.439-56.5q.03-11.809.735-23.6c.412-6.9,1-13.858-.066-20.686" transform="translate(-308.438 -32.266)" fill="#0880ae" stroke="#ffd9d4" stroke-miterlimit="10" stroke-width="7"/><path d="M304.071,47.008q-1.58,46.849-2.68,93.713" transform="translate(-273.387 -36.472)" fill="#0880ae" stroke="#ffd9d4" stroke-miterlimit="10" stroke-width="7"/><path d="M265.616,89.316q71.254-.1,142.5.775" transform="translate(-263.18 -48.539)" fill="#0880ae" stroke="#ffd9d4" stroke-miterlimit="10" stroke-width="7"/><path d="M262.208,143.627q12.744-.706,25.518-.287c7.441.244,14.872.775,22.314,1,35.745,1.06,71.637-5.033,107.181-1.085" transform="translate(-262.208 -63.546)" fill="#0880ae" stroke="#ffd9d4" stroke-miterlimit="10" stroke-width="7"/><path d="M269.089,136.367q70.494-.473,140.99-.462" transform="translate(-264.171 -61.835)" fill="#0880ae" stroke="#ffd9d4" stroke-miterlimit="10" stroke-width="1"/><path d="M273.116,80.863Q340.83,82.8,408.554,79.226" transform="translate(-265.32 -45.664)" fill="#0880ae" stroke="#ffd9d4" stroke-miterlimit="10" stroke-width="1"/><path d="M295.7,51.727a538,538,0,0,1-.565,56.2c-.874,12.33-2.368,24.843.108,36.953" transform="translate(-271.245 -37.818)" fill="#0880ae" stroke="#ffd9d4" stroke-miterlimit="10" stroke-width="1"/><path d="M340.754,57.63q.242,45.033.483,90.066" transform="translate(-284.618 -39.502)" fill="#0880ae" stroke="#ffd9d4" stroke-miterlimit="10" stroke-width="1"/><path d="M378.409,53.575c2.033,30.572-.669,61.26,0,91.893" transform="translate(-295.329 -38.346)" fill="#0880ae" stroke="#ffd9d4" stroke-miterlimit="10" stroke-width="1"/><path d="M416.284,54.182c-1.124,3.874-.467,8.005-.056,12.018,1.465,14.283-.312,28.738.943,43.041.422,4.818,1.189,9.608,1.391,14.44.33,7.917-.842,16.008,1.161,23.674l.209-1.078" transform="translate(-305.989 -38.519)" fill="#0880ae" stroke="#ffd9d4" stroke-miterlimit="10" stroke-width="1"/></g><g transform="translate(-5.578 2.786)"><path d="M354.7,121.28c2.707.72,4.339,1.89,8.365,1.355,2.956-.393,6.089-2.07,6.454-5.243a23.753,23.753,0,0,0-1-9.934" transform="translate(-293.588 -78.198)" fill="none" stroke="#300606" stroke-miterlimit="10" stroke-width="1"/><path d="M324.411,135.868A76.46,76.46,0,0,0,296,134.4c-14.673,2.288-24.91,14.773-24.91,14.773v11.943h83.978C348.549,141.668,324.411,135.868,324.411,135.868Z" transform="translate(-269.735 -85.674)" fill="#d7dfe5"/><g transform="translate(1.355 47.989)" opacity="0.55"><g clip-path="url(#e)"><g transform="translate(31.824 -1.759)"><path d="M319.917,153.665c1.812,2.93,3.9,5.893,6.988,7.427,2.228,1.108,4.878,1.414,6.8,2.993,2.506,2.057,3.048,5.616,3.407,8.839" transform="translate(-316.845 -137.611)" fill="none" stroke="#e8f3f9" stroke-miterlimit="10" stroke-width="1"/><path d="M319.357,148.036a16.132,16.132,0,0,0,5.014,6.754,37.411,37.411,0,0,0,7.226,4.46c2.291,1.148,4.68,2.258,6.438,4.121,2.35,2.491,3.255,5.973,4.077,9.3" transform="translate(-316.685 -136.005)" fill="none" stroke="#e8f3f9" stroke-miterlimit="10" stroke-width="1"/><path d="M315.618,139.272c2.533,3.677,5.449,7.2,9.222,9.586s8.533,3.521,12.791,2.18c1.608-.507,3.094-1.341,4.682-1.907a15.012,15.012,0,0,1,12.464,1.184" transform="translate(-315.618 -133.504)" fill="none" stroke="#e8f3f9" stroke-miterlimit="10" stroke-width="1"/><path d="M317.3,139.464a44,44,0,0,0,7.656,6.8,15.89,15.89,0,0,0,5.987,2.846,16.108,16.108,0,0,0,8.335-1.152,50.787,50.787,0,0,1,8.075-2.669c2.794-.5,5.9-.187,8.088,1.624" transform="translate(-316.099 -133.559)" fill="none" stroke="#e8f3f9" stroke-miterlimit="10" stroke-width="1"/><path d="M317.933,131.2a4.188,4.188,0,0,0,1.021,3.046,14.383,14.383,0,0,0,12.672,5.523c3.769-.322,7.308-2.005,11.065-2.444a17.152,17.152,0,0,1,12.315,3.415" transform="translate(-316.268 -131.202)" fill="none" stroke="#e8f3f9" stroke-miterlimit="10" stroke-width="1"/><path d="M362.358,158.6a13.74,13.74,0,0,0-8.7.166,4.324,4.324,0,0,0-2.7,2.1c-.575,1.363.119,2.892.714,4.247,1.534,3.489,2.478,7.423,1.54,11.118" transform="translate(-325.64 -138.841)" fill="none" stroke="#e8f3f9" stroke-miterlimit="10" stroke-width="1"/><path d="M359.957,176.473a47.973,47.973,0,0,1-2.186-7.3,9.862,9.862,0,0,1-.272-3.616,3.861,3.861,0,0,1,1.955-2.914,2.44,2.44,0,0,1,3.167.9" transform="translate(-327.545 -140.102)" fill="none" stroke="#e8f3f9" stroke-miterlimit="10" stroke-width="1"/></g></g></g><path d="M367,94.762q.632,5.458,1.264,10.914c.39,3.371.673,7.143-1.447,9.793-3.934,4.916-12.221,2.658-16.013-2.292" transform="translate(-292.478 -74.576)" fill="#300606"/><path d="M346.2,119.863l-1.376,16.391s-1.324,4.207-8.167,2.729c-5.22-1.128-6.825-7.267-6.825-7.267l3.911-14.572Z" transform="translate(-286.494 -80.961)" fill="#e28576"/><path d="M358.494,82.9c3.468,9.249-.244,22.278-7.166,27.3-4.095,2.97-8.648,2.451-12.877,0-4.709-2.73-8.62-9.9-8.62-19.45C329.83,78.119,351.327,63.787,358.494,82.9Z" transform="translate(-286.494 -68.542)" fill="#e28576"/><path d="M346.938,67.992a21.66,21.66,0,0,0-4.891-1.324c-5.694-.777-11.37,1.517-15.751,5.051s-6.916,7.616-9.112,12.732a50.876,50.876,0,0,0-2.689,6.89c-1.079,4.057-1.411,8.459,1.219,12.03a9.769,9.769,0,0,0,4.343,3.617,30,30,0,0,0,6.926,2.163,3.341,3.341,0,0,0,1.667,0,2.444,2.444,0,0,0,1.452-2.24,8.4,8.4,0,0,0-.526-2.771c-1.745-5.951-2.541-12.681-.616-18.689a10.251,10.251,0,0,1,3.3-4.313.916.916,0,0,1,.472-.259c.384-.041.644.362.867.68a4.64,4.64,0,0,0,4.534,1.587,11.227,11.227,0,0,0,3.683-1.449.966.966,0,0,1,1.31.379,3.517,3.517,0,0,0,2.472,1.693,3.482,3.482,0,0,0,2.4-.567.971.971,0,0,1,1.414.422,1.416,1.416,0,0,0,1.27.83c.4-.028.756-.284,1.155-.332.813-.1,1.459.658,1.853,1.377,1.035,1.89,2.189,5.577,1.994,7.722.034-.367.842-1.152,1.048-1.509a11.453,11.453,0,0,0,.924-2.036,13.125,13.125,0,0,0,.67-4.184C358.354,78.477,353.613,70.579,346.938,67.992Z" transform="translate(-281.89 -66.517)" fill="#300606"/><g transform="translate(41.919 24.412)"><path d="M334.51,110.134a2.6,2.6,0,0,1-3.366.953c-3.3-1.677-4.339-7-2.118-9.227,3.355-3.366,6.01,1.357,6,2.77" transform="translate(-327.848 -100.675)" fill="#e28576"/><path d="M332.235,109.42c.65.558,1.955,1.167,2.38.071.382-.987-.728-1.266-.915-2.1a2.484,2.484,0,0,1,.131-1.071,2.4,2.4,0,0,0-.169-1.707,1.37,1.37,0,0,0-1.474-.7,2.122,2.122,0,0,0-1.136,1.143c-.112.2-.2.506.006.616" transform="translate(-328.729 -101.588)" fill="none" stroke="#c46762" stroke-miterlimit="10" stroke-width="1"/></g><path d="M310.734,165.537c.547-10.283-1.522-23.213-5.245-31.855-12.993-.279-28.437,4.929-36.3,15.783V165.2Z" transform="translate(-269.194 -85.677)" fill="#8faac8"/><path d="M359.639,166.352s1.862-18.484-3.216-25.793c13.718,3.581,24.013,18.212,24.586,23.93S359.639,166.352,359.639,166.352Z" transform="translate(-294.081 -87.642)" fill="#8faac8"/><path d="M311.693,134.438s-1.537,12.441-.427,13.909,7.11,5.092,7.11,5.092-6.592-.712-6.592,1.334,3.3,7.483,3.3,7.483" transform="translate(-281.082 -85.895)" fill="none" stroke="#00275c" stroke-linejoin="round" stroke-width="1"/><path d="M362.172,143.352s7.454,10.363,6.867,12.523l-4.715,1.46s4.986.795,4.715,2.293a21.839,21.839,0,0,1-2.585,6.58" transform="translate(-295.721 -88.439)" fill="none" stroke="#00275c" stroke-linejoin="round" stroke-width="1"/><path d="M365.87,104.2a.885.885,0,1,1-.624-1.085A.886.886,0,0,1,365.87,104.2Z" transform="translate(-296.28 -76.951)" fill="#300606"/><path d="M346.417,100.047a.885.885,0,1,0,1.085-.624A.885.885,0,0,0,346.417,100.047Z" transform="translate(-291.217 -75.897)" fill="#300606"/><path d="M345.54,103.1c-1.462-1.858-5.572-.667-5.913,2-.307,2.409,2.612,3.646,4.418,3.34a2.949,2.949,0,0,0,2.163-2.228A3.706,3.706,0,0,0,345.54,103.1Z" transform="translate(-289.283 -76.698)" fill="#d86e66"/><path d="M365.757,107.555a2.872,2.872,0,0,0-4.972,1.685c-.257,2.026,2.2,3.067,3.715,2.809a2.479,2.479,0,0,0,1.819-1.874A2.883,2.883,0,0,0,365.757,107.555Z" transform="translate(-295.32 -77.953)" fill="#d86e66"/><path d="M356.674,104.848s.745,5.331-.338,5.953-3.18-.422-3.18-.422" transform="translate(-293.149 -77.453)" fill="none" stroke="#c46762" stroke-miterlimit="10" stroke-width="1"/><path d="M349.134,96.449c-.932-1.771-4.327-3.005-7.028-.8" transform="translate(-289.996 -74.491)" fill="none" stroke="#300606" stroke-linecap="round" stroke-linejoin="round" stroke-width="1"/><path d="M366.946,100.695s-1.761-3.062-4.6-1.755" transform="translate(-295.771 -75.675)" fill="none" stroke="#300606" stroke-linecap="round" stroke-linejoin="round" stroke-width="1"/><path d="M354.018,116.973,347.184,115a.37.37,0,0,0-.455.244c-.336,1.036-1.076,4.16,1.741,5.274,3.538,1.4,5.292-1.757,5.819-2.971A.425.425,0,0,0,354.018,116.973Z" transform="translate(-291.217 -80.347)" fill="#fff"/><path d="M348.582,126.408s-5.517.275-8.977-3.185" transform="translate(-289.283 -82.696)" fill="none" stroke="#ef927f" stroke-miterlimit="10" stroke-width="1"/><path d="M330.265,70.476c-7.07,2.243-13.689,12.057-16.415,18.917a27.329,27.329,0,0,0-.994,3.273,16.591,16.591,0,0,0-.426,8.182,10.9,10.9,0,0,0,7.957,7.326" transform="translate(-281.43 -67.647)" fill="none" stroke="#300606" stroke-miterlimit="10" stroke-width="1"/></g></g></g><path d="M348.443,126.233a12.057,12.057,0,0,1-9.339-3.489" transform="translate(-249.882 -75.656)" fill="none" stroke="#c46762" stroke-miterlimit="10" stroke-width="1"/><g transform="translate(0 5.546)"><path d="M236.2,64.619H220.5a6.238,6.238,0,0,0-6.239,6.238v7.207A6.238,6.238,0,0,0,220.5,84.3h25.971a.332.332,0,0,0,.194-.6l-4.233-3.065V70.857A6.238,6.238,0,0,0,236.2,64.619Z" transform="translate(-214.265 -64.619)" fill="#fffcfa" stroke="#ff796d" stroke-miterlimit="10" stroke-width="1"/><g transform="translate(5.795 8.291)"><path d="M222.374,77.769a1.468,1.468,0,0,1,1.477-1.549,1.435,1.435,0,0,1,1.452,1.549,1.459,1.459,0,0,1-1.5,1.551A1.445,1.445,0,0,1,222.374,77.769Z" transform="translate(-222.374 -76.22)" fill="#ff9e94"/><path d="M232.708,77.769a1.468,1.468,0,0,1,1.477-1.549,1.435,1.435,0,0,1,1.452,1.549,1.467,1.467,0,1,1-2.929,0Z" transform="translate(-225.322 -76.22)" fill="#ff9e94"/><path d="M243.041,77.769a1.468,1.468,0,0,1,1.477-1.549,1.435,1.435,0,0,1,1.452,1.549,1.459,1.459,0,0,1-1.5,1.551A1.445,1.445,0,0,1,243.041,77.769Z" transform="translate(-228.27 -76.22)" fill="#ff9e94"/></g></g></g><g transform="translate(246.757 0.498)"><g transform="translate(53.608)" fill="#ffecee" stroke="#ff796d" stroke-miterlimit="10" stroke-width="1"><rect width="57.569" height="82.765" rx="7.504" stroke="none"/><rect x="0.5" y="0.5" width="56.569" height="81.765" rx="7.004" fill="none"/></g><rect width="51.877" height="75.031" transform="translate(56.454 3.867)" fill="#ff796d"/><g transform="translate(56.454 3.867)"><g clip-path="url(#f)"><g transform="translate(-11.951 1.674)"><g transform="translate(1.034)" opacity="0.35"><path d="M484,66.883q35.444-.116,70.867-1.573" transform="translate(-476.568 -65.31)" fill="none" stroke="#ff9e94" stroke-miterlimit="10" stroke-width="3"/><path d="M482.845,72.9a126.262,126.262,0,0,0,19.664.5c4.087-.215,8.163-.629,12.254-.74,13.787-.375,27.679,2.684,41.3.5" transform="translate(-476.238 -67.397)" fill="none" stroke="#ff9e94" stroke-miterlimit="10" stroke-width="3"/><path d="M547.583,82.592c-23.082,2.518-46.434-1-69.6.5" transform="translate(-474.85 -70.241)" fill="none" stroke="#ff9e94" stroke-miterlimit="10" stroke-width="3"/><path d="M480.652,92.257l75.916.848" transform="translate(-475.613 -72.998)" fill="none" stroke="#ff9e94" stroke-miterlimit="10" stroke-width="3"/><path d="M484,99.857q36.236,1.21,72.481-.915" transform="translate(-476.569 -74.905)" fill="none" stroke="#ff9e94" stroke-miterlimit="10" stroke-width="3"/><path d="M547.017,110.043l-68.218-.27" transform="translate(-475.084 -77.996)" fill="none" stroke="#ff9e94" stroke-miterlimit="10" stroke-width="3"/><path d="M485.118,118.365c6.561.042,13.131.084,19.672-.429,4.545-.357,9.069-.982,13.623-1.192,12.256-.565,24.693,1.873,36.729-.512" transform="translate(-476.887 -79.838)" fill="none" stroke="#ff9e94" stroke-miterlimit="10" stroke-width="3"/><path d="M479.914,126.932q37.033.217,74.062-.595" transform="translate(-475.402 -82.721)" fill="none" stroke="#ff9e94" stroke-miterlimit="10" stroke-width="3"/><path d="M545.107,134.04l-71.135.112" transform="translate(-473.707 -84.919)" fill="none" stroke="#ff9e94" stroke-miterlimit="10" stroke-width="3"/><path d="M476.574,139.943q39.3-.527,78.552-2.943" transform="translate(-474.449 -85.764)" fill="none" stroke="#ff9e94" stroke-miterlimit="10" stroke-width="3"/><path d="M473.6,148.323l80.159-1.616" transform="translate(-473.601 -88.533)" fill="none" stroke="#ff9e94" stroke-miterlimit="10" stroke-width="3"/></g><path d="M472.154,168.788s8.853-14.939,17.958-20.019c9.4-5.242,49.692-11.3,59.112,3.769s8.243,21.9,8.243,21.9Z" transform="translate(-472.154 -87.479)" fill="#8e444a"/><path d="M519.637,131.209l.541,11.562s2.079,2.652,8.055,1.754c7.6-1.141,8.979-4.864,8.979-4.864L532,123.962" transform="translate(-485.701 -82.044)" fill="#ffd5c7"/><line x1="4.851" y1="4.098" transform="translate(22.935 25.632)" fill="none" stroke="#300606" stroke-miterlimit="10" stroke-width="1"/><path d="M531.935,95.985a17.388,17.388,0,0,0-1.483-3.643,14.787,14.787,0,0,0-10.4-7.606,8.81,8.81,0,0,0-6.414,1.244c-2.641,1.876-4.02,5.485-5.267,8.345-2.283,5.234-4.891,11.392-4.583,17.212a9.6,9.6,0,0,0,1.975,5.622,10.458,10.458,0,0,0,4.975,3.071,15.525,15.525,0,0,0,17.313-5.124,20.95,20.95,0,0,0,4.313-9.8A21.347,21.347,0,0,0,531.935,95.985Z" transform="translate(-481.171 -70.815)" fill="#ffd5c7"/><path d="M540.176,107.579c-1.789,2.993-8.092,8.13-11.083,5.541-.648-.562.706-3.71.906-4.332.662-2.068,1.8-4.044.332-6-3.194-4.244-6.37-8.954-6.462-14.265a50.591,50.591,0,0,1-6.572.888,9.377,9.377,0,0,1-6.228-1.849,5.261,5.261,0,0,1-1.682-5.946,6.246,6.246,0,0,1,1.882-2.233,2.349,2.349,0,0,1,.793-.462c1.064-.3,2.009.772,3.093.992a2.889,2.889,0,0,1,1.737-3.778,5.574,5.574,0,0,1,2.175-.057,57.682,57.682,0,0,1,7.343,1.1,23.788,23.788,0,0,1,12.346,7.1C544.566,90.853,544.549,100.259,540.176,107.579Z" transform="translate(-482.673 -68.36)" fill="#591906"/><path d="M525.624,110a.667.667,0,1,0,.943.031A.667.667,0,0,0,525.624,110Z" transform="translate(-487.349 -78.01)" fill="#300606"/><path d="M511.245,104.817a.667.667,0,1,0,.943.031A.667.667,0,0,0,511.245,104.817Z" transform="translate(-483.246 -76.53)" fill="#300606"/><path d="M527.841,117.709c-.2-1.771-3.306-2.637-4.583-1.061-1.152,1.422.227,3.373,1.506,3.892a2.222,2.222,0,0,0,2.27-.57A2.794,2.794,0,0,0,527.841,117.709Z" transform="translate(-486.611 -79.722)" fill="#f9af95"/><path d="M509.168,109.449a2.017,2.017,0,0,0-3.518-.966,2.276,2.276,0,0,0,.819,3.451,1.947,1.947,0,0,0,1.991-.5A2.45,2.45,0,0,0,509.168,109.449Z" transform="translate(-481.572 -77.424)" fill="#f9af95"/><path d="M514.885,107.979a12.784,12.784,0,0,0-2.7,6.091,2.363,2.363,0,0,0,.26,1.813,1.732,1.732,0,0,0,1.343.592,5.117,5.117,0,0,0,1.487-.268" transform="translate(-483.558 -77.484)" fill="none" stroke="#ef927f" stroke-miterlimit="10" stroke-width="1"/><path d="M513.3,102.44a2.7,2.7,0,0,0-.912-1.944,1.152,1.152,0,0,0-1.635-.035" transform="translate(-483.167 -75.246)" fill="none" stroke="#5b3005" stroke-linecap="round" stroke-linejoin="round" stroke-width="1"/><path d="M525.373,105.491c1.248-.374,3.769-.68,4.713,2.01" transform="translate(-487.338 -76.705)" fill="none" stroke="#5b3005" stroke-linecap="round" stroke-linejoin="round" stroke-width="1"/><g transform="translate(22.373 23.199)"><path d="M503.494,101.838a4.64,4.64,0,1,0,5.177-4.032A4.64,4.64,0,0,0,503.494,101.838Z" transform="translate(-503.458 -97.77)" fill="none" stroke="#300606" stroke-miterlimit="10" stroke-width="1"/><path d="M519.988,107.286a2.379,2.379,0,0,0-3.744-1.229" transform="translate(-507.106 -99.99)" fill="none" stroke="#300606" stroke-miterlimit="10" stroke-width="1"/><line x1="4.761" y1="4.871" transform="translate(23.114 10.108)" fill="none" stroke="#300606" stroke-miterlimit="10" stroke-width="1"/><circle cx="5.336" cy="5.336" r="5.336" transform="translate(11.043 5.679) rotate(-22.177)" fill="none" stroke="#300606" stroke-miterlimit="10" stroke-width="1"/></g><path d="M511.585,122.133a12.632,12.632,0,0,0,6.651.71.679.679,0,0,1,.7.232c.808,1.626-.548,4.422-4.147,4.107-3.186-.28-5.315-2.291-3.924-4.96C510.948,122.053,511.319,122.008,511.585,122.133Z" transform="translate(-483.073 -81.502)" fill="#fff"/><g transform="translate(42.599 36.721)"><path d="M536.288,116.914a2.693,2.693,0,0,1,3.561,1.508,3.558,3.558,0,0,1,.131,1.635c-.306,2.321-2.3,4.766-4.566,5.033s-3.849-1.088-3.637-2.933" transform="translate(-531.758 -116.691)" fill="#ffd5c7"/><path d="M534.61,121.967c.387-.55,1.09-.515,1.685-.561a.761.761,0,0,0,.649-.325,1.127,1.127,0,0,0,.09-.532,3.015,3.015,0,0,1,.255-1.284,1.227,1.227,0,0,1,.937-.74c1.778-.088.681,3.077.182,3.885-.805,1.3-4.023,2.837-4.024.225A1.194,1.194,0,0,1,534.61,121.967Z" transform="translate(-532.507 -117.214)" fill="#f9af95"/></g><path d="M519.73,134.4a18.6,18.6,0,0,0,10.864-4.23" transform="translate(-485.728 -83.816)" fill="none" stroke="#ef927f" stroke-miterlimit="10" stroke-width="1"/><path d="M516.235,145.2s-.875,7.622,8.27,7.622c7.862,0,15.163-2.6,14.922-9.573" transform="translate(-484.724 -87.545)" fill="none" stroke="#63252c" stroke-miterlimit="10" stroke-width="1"/><line x1="2.448" y2="14.802" transform="translate(19.484 67.798)" fill="none" stroke="#63252c" stroke-miterlimit="10" stroke-width="1"/><path d="M540.739,80.829a29.286,29.286,0,0,1,8.383,6.91,17.583,17.583,0,0,1,3.985,10.229c.181,5.926-3.34,11.46-7.934,14.9" transform="translate(-491.722 -69.738)" fill="none" stroke="#591906" stroke-miterlimit="10" stroke-width="1"/><path d="M511.05,82.059a5.116,5.116,0,0,0-3.15,4.616,4.03,4.03,0,0,0,.313,2.008c2.48,5.17,11.28,3.11,15.332,1.569" transform="translate(-482.349 -70.089)" fill="none" stroke="#591906" stroke-miterlimit="10" stroke-width="1"/></g></g></g><g transform="translate(0 18.089)"><path d="M436.2,106.487H417.372A7.486,7.486,0,0,1,409.886,99V90.353a7.486,7.486,0,0,1,7.486-7.486h31.164a.4.4,0,0,1,.234.722l-5.08,3.678V99A7.486,7.486,0,0,1,436.2,106.487Z" transform="translate(-409.886 -82.867)" fill="#fffcfa" stroke="#ff796d" stroke-miterlimit="10" stroke-width="1"/><path d="M422.921,93.231a4.375,4.375,0,0,1,8.274-1.17,4.378,4.378,0,1,1,7.045,4.979L432,103.282a1.135,1.135,0,0,1-1.605,0l-6.243-6.243A4.383,4.383,0,0,1,422.921,93.231Z" transform="translate(-413.589 -84.775)" fill="#f9d7d7"/></g></g><g transform="translate(15.696 277.007)"><line x2="285.054" transform="translate(112.933)" fill="none" stroke="#ff796d" stroke-miterlimit="10" stroke-width="1"/><line x2="78.675" fill="none" stroke="#ff796d" stroke-miterlimit="10" stroke-width="1"/><line x2="12.819" transform="translate(83.981)" fill="none" stroke="#ff796d" stroke-miterlimit="10" stroke-width="1"/></g></g></g></svg>